# xmcd
#
# Track frame offsets:
#	150
#	36760
#	61602
#
# Disc length: 1084 seconds
#
# Revision: 1
# Processed by: cddbd v1.5.2PL0 Copyright (c) Steve Scherf et al.
# Submitted via: audiograbber 1.83.01
#
DISCID=1a043a03
DTITLE=Various Artist - Holocaust - Amalgam [CDM)
DYEAR=1995
DGENRE=Electronic
TTITLE0=Holocaust - Nocturnal Acid
TTITLE1=Amalgam - Necro
TTITLE2=Amalgam - Amalgam V
EXTD=TR.
EXTT0=
EXTT1=
EXTT2=
PLAYORDER=
